# xmcd
#
# Track frame offsets:
#	150
#	28703
#	60434
#
# Disc length: 1251 seconds
#
# Revision: 0
# Processed by: cddbd v1.5.1PL0 Copyright (c) Steve Scherf et al.
# Submitted via: dBpowerAMP V4.0
#
DISCID=1c04e103
DTITLE=Eddie Chance - A Message of Support
DYEAR=2003
DGENRE=Blues/Acid Jazz
TTITLE0=It;s Up to You
TTITLE1=The Flow
TTITLE2=Lots of Licks
EXTD=Eddie Chance: A message of support
EXTT0=
EXTT1=
EXTT2=
PLAYORDER=
